<?xml version="1.0" encoding="utf-8"?>
<!-- Generator: Adobe Illustrator 21.0.0, SVG Export Plug-In . SVG Version: 6.00 Build 0)  -->
<svg version="1.1" id="Layer_1" xmlns="http://www.w3.org/2000/svg" xmlns:xlink="http://www.w3.org/1999/xlink" x="0px" y="0px"
	 viewBox="0 0 125 141" style="enable-background:new 0 0 125 141;" xml:space="preserve">
<style type="text/css">
	.st0{fill:#FFFFFF;}
</style>
<g>
	<g>
		<g>
			<path class="st0" d="M3.8,2.4H0V0h19.1v2.3c-1,0.1-2,0.1-3.3,0.2v2.3c0,29.9,0,59.9,0,89.8c0,3.6,2.6,6.6,5.8,6.6
				c3.3,0,6-2.9,6-6.6V5.6V2.5h-3.7V0h19.6v2.3h-3.8v2.3c0,27.7-0.1,55.4,0,83.1c0,6.3-3,10.5-8.1,13.4c-7.9,4.5-18.9,3.2-25.1-4.6
				c-1.7-2.2-2.7-4.7-2.7-7.6c0-27.6,0-55.1,0-82.7V2.4z"/>
		</g>
		<g>
			<path class="st0" d="M121.2,100.3h3.7c0,0.8,0.1,1.5,0.1,2.4h-19.3v-2.3c1.1-0.1,2.1-0.1,3.3-0.2V2.5c-1-0.1-2-0.1-3.3-0.2
				c0-0.7-0.1-1.5-0.1-2.3h19.3v2.4h-3.6V100.3z"/>
		</g>
		<g>
			<path class="st0" d="M100.3,79.7c-0.9,0.5-3,1.3-4.1,1.7c-0.7,0.3-1.4,0.5-2,0.6c-2,0.5-3.2,0.7-5.1,1c-2.3,0.3-5.6,0.1-7.6-0.2
				c-0.7-0.1-1-0.1-1.3-0.7c1.9-4.9,2.2-11.1,1.8-14.7c0.5-1.9,0.8-3.6,1.6-5.3c0.7-1.3,1.4-3.4,2-4.7c2.2-4.2,4.2-7.8,7-11.7
				c1.1-1.5-2.6-3.3-4-2.1c-1.3,1-4.7,5.1-7,8c-0.2,0.3-1.8,2.6-2.8,4.1c0.3-0.5-2.7-4.6-3.1-5.1c-1-1.4-2-2.8-3.2-4.1
				c-3.4-3.7-7.8-7.8-13.1-8.2c0,0,0,0,0,0c-2.7-0.2-5.7,0.9-7.4,2.8c-2.6,3-3,7.5-2.8,11.3c0.1,2.3,0.6,4.6,1.2,6.8
				c0.7,3.1,1.9,6.4,3.3,9.3c1,2.1,2.3,4.3,3.6,6.2c2.1,3,4.7,5.8,7.4,8.3c1.5,1.4,1.4,2.8,1,4.7c-0.7,3.2-1.5,6.4-2.3,9.6
				c-0.4,1.5,0.4,3.7,1.9,4.2c2,0.7,4.1-0.4,5.5-1.7c1.6-1.5,2.3-3.6,3.3-5.5c1.4-2.5,3.2-3.2,4.3-3.6c2-0.8,4-0.1,6.2-0.2
				c6.2-0.2,10.9-4.7,15.2-8.4c0.5-0.5,1-1.1,1.1-1.7C101.1,79.5,100.3,79.7,100.3,79.7z M72.9,66.5c0.1-0.2,0.2-0.5,0.1-0.4
				c-1.4,3.2-2.6,8.2-4.3,11.8c0,0-2.2-1.6-2.3-1.6c-0.9-0.6-1.8-1.5-2.6-2.3c-0.4-0.4-1-1-1.4-1.4c-0.4-0.4-0.8-1-1.2-1.4
				c-0.4-0.5-0.9-1.2-1.3-1.7c-1.6-2.2-2.7-4.6-3.7-7.2c-0.5-1.5-1-3.2-1.3-4.7c-0.9-4.1-1.8-10.9,1.8-14c5.4-4.7,11,3.3,13.2,7.5
				c0.6,1.2,1.1,2.5,1.6,3.7c1.1,2.9,2.5,7-0.1,9.4c-0.8,0.8-2.4,1.7-1.3,3.4c1-0.8,1.9-1.1,2.6-1.6C73.1,66,72.9,66.5,72.9,66.5z"
				/>
		</g>
	</g>
</g>
<g>
	<g>
		<path class="st0" d="M0.1,119.1h3.6v17.6h8.3v3.6H0.1V119.1z"/>
	</g>
	<g>
		<path class="st0" d="M30.2,129.9c0,3.5-0.9,6.3-2.6,8.5c-1.4,1.8-3.3,2.6-5.7,2.6c-2.5,0-4.4-0.9-5.7-2.6c-1.7-2.2-2.6-5-2.6-8.5
			c0-3.5,0.9-6.3,2.6-8.5c1.4-1.8,3.3-2.6,5.7-2.6c2.5,0,4.4,0.9,5.7,2.6C29.3,123.6,30.2,126.4,30.2,129.9z M21.9,137.2
			c1.3,0,2.3-0.5,3.2-1.4c1.2-1.3,1.7-3.3,1.7-5.9s-0.6-4.6-1.7-5.9c-0.8-0.9-1.9-1.4-3.2-1.4c-1.3,0-2.3,0.5-3.2,1.4
			c-1.1,1.3-1.7,3.3-1.7,5.9s0.6,4.6,1.7,5.9C19.6,136.7,20.6,137.2,21.9,137.2z"/>
	</g>
	<g>
		<path class="st0" d="M41,132.6v-3.6h6.9v11.5h-2.1l-0.4-2.6c-0.6,1-1.3,1.7-1.9,2.2c-1,0.8-2.3,1.1-3.8,1
			c-1.4-0.1-2.5-0.4-3.4-1.1c-0.4-0.3-1-0.9-1.6-1.6c-1.7-2.1-2.6-4.9-2.6-8.4c0-2.3,0.4-4.3,1.2-6.1c0.9-2,2.1-3.4,3.7-4.3
			c0.9-0.5,2-0.7,3.3-0.7c2.5,0,4.4,0.8,5.7,2.3c0.8,1,1.4,2.1,1.7,3.1c0,0.1,0.1,0.6,0.3,1.7h-3.3c-0.6-2.3-2-3.5-4.2-3.5
			c-1.1,0-2.1,0.4-3,1.2c-1.3,1.3-1.9,3.4-1.9,6.4c0,1.5,0.2,2.7,0.6,3.7c0.9,2.3,2.2,3.6,4,3.8c0.7,0.1,1.3,0,2-0.3
			c0.8-0.4,1.4-0.9,1.9-1.6c0.6-0.9,0.9-1.9,1-3H41z"/>
	</g>
	<g>
		<path class="st0" d="M54.5,119.1v21.2H51v-21.2H54.5z"/>
	</g>
	<g>
		<path class="st0" d="M70.4,125.6h-3.3c0-0.9-0.3-1.7-0.8-2.3c-0.6-0.7-1.5-1-2.7-1.1c-2,0-3,0.8-3.1,2.4c0,0.7,0,1.2,0.2,1.5
			c0.1,0.2,0.4,0.4,0.9,0.6c0.2,0.3,1.7,0.7,4.3,1.3c1.9,0.4,3.3,1.1,4,2.1c0.7,1,1.1,2.2,1.1,3.8c0,1.1-0.2,2.2-0.6,3.2
			c-0.4,1-0.9,1.8-1.6,2.3c-1.2,0.9-3,1.4-5.4,1.5c-0.6,0-1.2-0.1-2-0.3c-0.9-0.3-1.7-0.7-2.3-1.2c-1.5-1.3-2.3-3.1-2.4-5.5h3.4
			c0,0.8,0.2,1.6,0.7,2.2c0.7,0.9,1.8,1.3,3.2,1.3c1.3-0.1,2.2-0.4,2.7-1c0.4-0.5,0.7-1.1,0.7-1.8c0-0.7-0.2-1.3-0.6-1.7
			c-0.4-0.5-1.4-1-3-1.4c-2.1-0.5-3.4-0.8-3.8-1c-2.1-0.9-3.2-2.6-3.2-5.1c0-0.3,0-0.5,0.1-0.8c0.1-1.8,0.7-3.2,1.7-4.2
			c1.1-1.1,2.7-1.7,4.7-1.7c2.7,0,4.6,0.9,5.8,2.7c0.7,1.1,1,2.3,1,3.6C70.5,125.3,70.5,125.5,70.4,125.6z"/>
	</g>
	<g>
		<path class="st0" d="M72.2,119.1H86v3.6h-5v17.6h-3.6v-17.6h-5.2V119.1z"/>
	</g>
	<g>
		<path class="st0" d="M91.3,119.1v21.2h-3.6v-21.2H91.3z"/>
	</g>
	<g>
		<path class="st0" d="M105.7,133.1h3.4c0,1.1-0.2,2.2-0.7,3.3c-0.4,1.1-1,2-1.6,2.6c-1.4,1.3-3.1,2-5.1,2.1
			c-1.9,0.1-3.5-0.6-4.8-1.9c-1.3-1.3-2.2-3.1-2.6-5.4c-0.2-1.1-0.3-2.3-0.3-3.7c0-1.6,0.1-3,0.4-4.1c1.2-4.7,3.7-7.1,7.5-7.1
			c1.8,0,3.3,0.6,4.7,1.7c1.7,1.4,2.6,3.4,2.6,5.9h-3.4c-0.1-1-0.4-1.8-0.9-2.5c-0.8-1.1-1.9-1.5-3.4-1.4c-0.8,0.1-1.5,0.4-2.1,1
			c-0.6,0.6-1.1,1.4-1.4,2.4c-0.3,0.9-0.5,2.2-0.5,3.6c-0.1,1.8,0.1,3.3,0.5,4.5c0.6,1.6,1.4,2.6,2.4,3.1c0.3,0.2,0.8,0.2,1.2,0.3
			c0.5,0,1-0.1,1.5-0.2c1.1-0.4,1.8-1,2.2-1.9C105.4,134.7,105.5,134,105.7,133.1z"/>
	</g>
	<g>
		<path class="st0" d="M124.3,125.6H121c0-0.9-0.3-1.7-0.8-2.3c-0.6-0.7-1.5-1-2.7-1.1c-2,0-3,0.8-3.1,2.4c0,0.7,0,1.2,0.2,1.5
			c0.1,0.2,0.4,0.4,0.9,0.6c0.2,0.3,1.7,0.7,4.3,1.3c1.9,0.4,3.3,1.1,4,2.1c0.7,1,1.1,2.2,1.1,3.8c0,1.1-0.2,2.2-0.6,3.2
			c-0.4,1-0.9,1.8-1.6,2.3c-1.2,0.9-3,1.4-5.4,1.5c-0.6,0-1.2-0.1-2-0.3c-0.9-0.3-1.7-0.7-2.3-1.2c-1.5-1.3-2.3-3.1-2.4-5.5h3.4
			c0,0.8,0.2,1.6,0.7,2.2c0.7,0.9,1.8,1.3,3.2,1.3c1.3-0.1,2.2-0.4,2.7-1c0.4-0.5,0.7-1.1,0.7-1.8c0-0.7-0.2-1.3-0.6-1.7
			c-0.4-0.5-1.4-1-3-1.4c-2.1-0.5-3.4-0.8-3.8-1c-2.1-0.9-3.2-2.6-3.2-5.1c0-0.3,0-0.5,0.1-0.8c0.1-1.8,0.7-3.2,1.7-4.2
			c1.1-1.1,2.7-1.7,4.7-1.7c2.7,0,4.6,0.9,5.8,2.7c0.7,1.1,1,2.3,1,3.6C124.4,125.3,124.3,125.5,124.3,125.6z"/>
	</g>
</g>
</svg>
